<svg width="100%" height="100%" viewBox="0 0 389 562" fill="none" xmlns="http://www.w3.org/2000/svg">
<path d="M0 16C0 7.16344 7.16344 0 16 0H271.453C277.083 0 282.297 2.95796 285.186 7.78927L302.054 36.0017C304.943 40.833 310.158 43.791 315.787 43.791H373C381.837 43.791 389 50.9544 389 59.791V546C389 554.837 381.837 562 373 562H313.761C309.27 562 304.985 560.112 301.954 556.797L285.286 538.571C282.255 535.256 277.971 533.368 273.479 533.368H115.521C111.029 533.368 106.745 535.256 103.714 538.571L87.046 556.797C84.0149 560.112 79.7302 562 75.2386 562H16C7.16342 562 0 554.837 0 546V16Z" fill="white"/>
</svg>
